<svg width="812" height="967" viewBox="0 0 812 967" fill="none" xmlns="http://www.w3.org/2000/svg">
<g clip-path="url(#clip0_50_2)">
<path d="M120.828 798.946C52.2 742.72 15.95 661.784 15.95 565.119V105.618C124.323 48.1296 255.548 18.9937 406 18.9937C556.452 18.9937 687.691 48.1296 796.05 105.618V565.119C796.05 661.784 759.8 742.662 691.171 798.946C628.386 850.442 428.895 938.038 405.985 948.007C383.104 938.038 183.613 850.456 120.828 798.946Z" fill="black"/>
<path d="M774.691 100.22C724.55 95.5624 672.466 92.4863 619.411 92.4863C422.646 92.4863 211.7 134.812 37.3085 294.871V568.456C37.3085 657.561 70.238 731.968 132.806 783C188.051 827.98 358.063 905.028 406 926.198C453.328 905.347 622.905 829.315 679.122 783C742.081 731.083 774.691 658.403 774.691 568.456V100.22ZM73.3555 539.987V317.797H143.956V543.121C143.956 563.174 148.799 592.861 181.178 592.861C192.911 593.336 204.521 590.305 214.527 584.155V317.797H285.041V624.449C253.195 644.339 216.125 654.225 178.611 652.831C108.721 652.831 73.283 614.873 73.283 539.987M392.022 796.45H321.378V335.789C349.954 318.225 383.069 309.479 416.585 310.643C500.902 310.643 547.23 374.661 547.23 477.696C547.23 580.731 502.28 651.612 423.835 651.612C413.098 651.805 402.389 650.452 392.036 647.593L392.022 796.45ZM392.022 589.829C399.356 592.578 407.115 594.022 414.947 594.095C455.547 594.095 475.005 556.761 475.005 479.466C475.005 400.286 458.026 367.537 417.006 367.537C408.399 367.466 399.874 369.201 391.979 372.63L392.022 589.829ZM563.238 402.767C563.681 378.001 573.894 354.416 591.648 337.157C609.403 319.898 633.259 310.367 658.01 310.643C685.715 309.173 713.083 317.278 735.527 333.598V395.076C718.892 377.708 696.271 367.331 672.263 366.057C652.239 365.882 631.403 374.69 630.721 399.821C630.04 425.547 650.833 435.704 677.121 451.172C736.122 485.88 747.533 517.076 746.17 558.299C744.821 603.497 713.69 652.86 643.902 652.86C616.535 652.553 589.74 644.982 566.254 630.921V565.815C584.912 582.685 608.682 592.811 633.766 594.574C659.677 594.704 676.73 579.846 676.121 555.194C675.584 533.008 663.07 520.95 631.997 502.682C573.75 468.497 563.281 440.362 563.18 402.767M109.17 811.816C37.7 753.24 0 669.068 0 568.456V90.1647C112.795 30.3258 249.4 0 406 0C562.6 0 699.205 30.3258 812 90.1647V568.456C812 669.068 774.3 753.24 702.83 811.831C637.493 865.431 429.838 956.596 406 966.971C382.162 956.596 174.507 865.43 109.17 811.816Z" fill="#2D008C"/>
</g>
<defs>
<clipPath id="clip0_50_2">
<rect width="812" height="967" fill="white"/>
</clipPath>
</defs>
</svg>
